<mxfile host="app.diagrams.net" modified="2020-08-30T20:39:38.899Z" agent="5.0 (Windows NT 10.0; Win64; x64) AppleWebKit/537.36 (KHTML, like Gecko) Chrome/84.0.4147.135 Safari/537.36 Edg/84.0.522.63" etag="TETV8sD9wGAB7ucHudSY" version="13.6.5" type="github">
  <diagram id="6-Giw8CHRXXG0erkQnG9" name="Page-1">
    <mxGraphModel dx="866" dy="490" grid="1" gridSize="10" guides="1" tooltips="1" connect="1" arrows="1" fold="1" page="1" pageScale="1" pageWidth="827" pageHeight="1169" math="0" shadow="0">
      <root>
        <mxCell id="0" />
        <mxCell id="1" parent="0" />
        <mxCell id="gkVkLWcn6_179aJGpPZe-38" value="" style="rounded=0;whiteSpace=wrap;html=1;glass=0;strokeWidth=2;sketch=0;shadow=0;dashed=1;" vertex="1" parent="1">
          <mxGeometry x="364" y="870" width="120" height="60" as="geometry" />
        </mxCell>
        <mxCell id="gkVkLWcn6_179aJGpPZe-33" value="" style="rounded=0;whiteSpace=wrap;html=1;glass=0;strokeWidth=2;sketch=0;shadow=0;dashed=1;" vertex="1" parent="1">
          <mxGeometry x="364" y="810" width="120" height="60" as="geometry" />
        </mxCell>
        <mxCell id="gkVkLWcn6_179aJGpPZe-1" value="Master" style="ellipse;whiteSpace=wrap;html=1;aspect=fixed;" vertex="1" parent="1">
          <mxGeometry x="50" y="890" width="80" height="80" as="geometry" />
        </mxCell>
        <mxCell id="gkVkLWcn6_179aJGpPZe-2" value="Dev" style="ellipse;whiteSpace=wrap;html=1;aspect=fixed;" vertex="1" parent="1">
          <mxGeometry x="160" y="750" width="80" height="80" as="geometry" />
        </mxCell>
        <mxCell id="gkVkLWcn6_179aJGpPZe-3" value="" style="endArrow=classic;html=1;exitX=0.5;exitY=0;exitDx=0;exitDy=0;" edge="1" parent="1" source="gkVkLWcn6_179aJGpPZe-1">
          <mxGeometry width="50" height="50" relative="1" as="geometry">
            <mxPoint x="270" y="780" as="sourcePoint" />
            <mxPoint x="90" y="190" as="targetPoint" />
          </mxGeometry>
        </mxCell>
        <mxCell id="gkVkLWcn6_179aJGpPZe-4" value="" style="endArrow=classic;html=1;exitX=0.5;exitY=0;exitDx=0;exitDy=0;" edge="1" parent="1" source="gkVkLWcn6_179aJGpPZe-23">
          <mxGeometry width="50" height="50" relative="1" as="geometry">
            <mxPoint x="270" y="780" as="sourcePoint" />
            <mxPoint x="200" y="190" as="targetPoint" />
          </mxGeometry>
        </mxCell>
        <mxCell id="gkVkLWcn6_179aJGpPZe-5" value="" style="curved=1;endArrow=classic;html=1;entryX=0.5;entryY=1;entryDx=0;entryDy=0;" edge="1" parent="1" target="gkVkLWcn6_179aJGpPZe-2">
          <mxGeometry width="50" height="50" relative="1" as="geometry">
            <mxPoint x="90" y="870" as="sourcePoint" />
            <mxPoint x="320" y="730" as="targetPoint" />
            <Array as="points">
              <mxPoint x="150" y="870" />
              <mxPoint x="200" y="860" />
            </Array>
          </mxGeometry>
        </mxCell>
        <mxCell id="gkVkLWcn6_179aJGpPZe-6" value="Usuario" style="shape=umlActor;verticalLabelPosition=bottom;verticalAlign=top;html=1;outlineConnect=0;" vertex="1" parent="1">
          <mxGeometry x="75" y="100" width="30" height="60" as="geometry" />
        </mxCell>
        <mxCell id="gkVkLWcn6_179aJGpPZe-7" value="Colaborador" style="ellipse;whiteSpace=wrap;html=1;aspect=fixed;" vertex="1" parent="1">
          <mxGeometry x="284" y="600" width="80" height="80" as="geometry" />
        </mxCell>
        <mxCell id="gkVkLWcn6_179aJGpPZe-8" value="" style="curved=1;endArrow=classic;html=1;entryX=0.5;entryY=1;entryDx=0;entryDy=0;" edge="1" parent="1" target="gkVkLWcn6_179aJGpPZe-7">
          <mxGeometry width="50" height="50" relative="1" as="geometry">
            <mxPoint x="200" y="730" as="sourcePoint" />
            <mxPoint x="350" y="690" as="targetPoint" />
            <Array as="points">
              <mxPoint x="260" y="730" />
              <mxPoint x="324" y="720" />
            </Array>
          </mxGeometry>
        </mxCell>
        <mxCell id="gkVkLWcn6_179aJGpPZe-9" value="Colaborador" style="ellipse;whiteSpace=wrap;html=1;aspect=fixed;" vertex="1" parent="1">
          <mxGeometry x="400" y="600" width="80" height="80" as="geometry" />
        </mxCell>
        <mxCell id="gkVkLWcn6_179aJGpPZe-10" value="Colaborador" style="ellipse;whiteSpace=wrap;html=1;aspect=fixed;" vertex="1" parent="1">
          <mxGeometry x="520" y="600" width="80" height="80" as="geometry" />
        </mxCell>
        <mxCell id="gkVkLWcn6_179aJGpPZe-11" value="" style="curved=1;endArrow=classic;html=1;entryX=0.5;entryY=1;entryDx=0;entryDy=0;" edge="1" parent="1" target="gkVkLWcn6_179aJGpPZe-9">
          <mxGeometry width="50" height="50" relative="1" as="geometry">
            <mxPoint x="200" y="730" as="sourcePoint" />
            <mxPoint x="350" y="690" as="targetPoint" />
            <Array as="points">
              <mxPoint x="400" y="730" />
              <mxPoint x="440" y="720" />
            </Array>
          </mxGeometry>
        </mxCell>
        <mxCell id="gkVkLWcn6_179aJGpPZe-12" value="" style="curved=1;endArrow=classic;html=1;entryX=0.5;entryY=1;entryDx=0;entryDy=0;" edge="1" parent="1" target="gkVkLWcn6_179aJGpPZe-10">
          <mxGeometry width="50" height="50" relative="1" as="geometry">
            <mxPoint x="200" y="730" as="sourcePoint" />
            <mxPoint x="350" y="770" as="targetPoint" />
            <Array as="points">
              <mxPoint x="520" y="730" />
              <mxPoint x="560" y="710" />
            </Array>
          </mxGeometry>
        </mxCell>
        <mxCell id="gkVkLWcn6_179aJGpPZe-14" value="" style="curved=1;endArrow=classic;html=1;exitX=0.5;exitY=0;exitDx=0;exitDy=0;strokeColor=#FF0000;" edge="1" parent="1" source="gkVkLWcn6_179aJGpPZe-7">
          <mxGeometry width="50" height="50" relative="1" as="geometry">
            <mxPoint x="370" y="480" as="sourcePoint" />
            <mxPoint x="200" y="500" as="targetPoint" />
            <Array as="points">
              <mxPoint x="324" y="560" />
              <mxPoint x="320" y="500" />
              <mxPoint x="260" y="500" />
            </Array>
          </mxGeometry>
        </mxCell>
        <mxCell id="gkVkLWcn6_179aJGpPZe-15" value="" style="curved=1;endArrow=classic;html=1;exitX=0.5;exitY=0;exitDx=0;exitDy=0;strokeColor=#FF0000;" edge="1" parent="1" source="gkVkLWcn6_179aJGpPZe-9">
          <mxGeometry width="50" height="50" relative="1" as="geometry">
            <mxPoint x="370" y="550" as="sourcePoint" />
            <mxPoint x="200" y="470" as="targetPoint" />
            <Array as="points">
              <mxPoint x="440" y="520" />
              <mxPoint x="440" y="470" />
              <mxPoint x="360" y="470" />
            </Array>
          </mxGeometry>
        </mxCell>
        <mxCell id="gkVkLWcn6_179aJGpPZe-17" value="" style="curved=1;endArrow=classic;html=1;exitX=0.5;exitY=0;exitDx=0;exitDy=0;strokeColor=#FF0000;" edge="1" parent="1" source="gkVkLWcn6_179aJGpPZe-10">
          <mxGeometry width="50" height="50" relative="1" as="geometry">
            <mxPoint x="370" y="550" as="sourcePoint" />
            <mxPoint x="200" y="440" as="targetPoint" />
            <Array as="points">
              <mxPoint x="560" y="480" />
              <mxPoint x="550" y="440" />
              <mxPoint x="440" y="440" />
            </Array>
          </mxGeometry>
        </mxCell>
        <mxCell id="gkVkLWcn6_179aJGpPZe-19" value="" style="curved=1;endArrow=classic;html=1;fillColor=#f8cecc;strokeColor=#FF0000;exitX=0.5;exitY=0;exitDx=0;exitDy=0;" edge="1" parent="1" source="gkVkLWcn6_179aJGpPZe-23">
          <mxGeometry width="50" height="50" relative="1" as="geometry">
            <mxPoint x="200" y="400" as="sourcePoint" />
            <mxPoint x="90" y="280" as="targetPoint" />
            <Array as="points">
              <mxPoint x="200" y="300" />
              <mxPoint x="170" y="280" />
            </Array>
          </mxGeometry>
        </mxCell>
        <mxCell id="gkVkLWcn6_179aJGpPZe-20" value="" style="endArrow=classic;html=1;exitX=0.5;exitY=0;exitDx=0;exitDy=0;" edge="1" parent="1" source="gkVkLWcn6_179aJGpPZe-7">
          <mxGeometry width="50" height="50" relative="1" as="geometry">
            <mxPoint x="370" y="550" as="sourcePoint" />
            <mxPoint x="324" y="190" as="targetPoint" />
          </mxGeometry>
        </mxCell>
        <mxCell id="gkVkLWcn6_179aJGpPZe-21" value="" style="endArrow=classic;html=1;exitX=0.5;exitY=0;exitDx=0;exitDy=0;" edge="1" parent="1" source="gkVkLWcn6_179aJGpPZe-9">
          <mxGeometry width="50" height="50" relative="1" as="geometry">
            <mxPoint x="370" y="550" as="sourcePoint" />
            <mxPoint x="440" y="190" as="targetPoint" />
          </mxGeometry>
        </mxCell>
        <mxCell id="gkVkLWcn6_179aJGpPZe-22" value="" style="endArrow=classic;html=1;exitX=0.5;exitY=0;exitDx=0;exitDy=0;" edge="1" parent="1" source="gkVkLWcn6_179aJGpPZe-10">
          <mxGeometry width="50" height="50" relative="1" as="geometry">
            <mxPoint x="370" y="550" as="sourcePoint" />
            <mxPoint x="560" y="190" as="targetPoint" />
          </mxGeometry>
        </mxCell>
        <mxCell id="gkVkLWcn6_179aJGpPZe-23" value="Pruebas" style="text;html=1;strokeColor=none;fillColor=none;align=center;verticalAlign=middle;whiteSpace=wrap;rounded=0;" vertex="1" parent="1">
          <mxGeometry x="180" y="400" width="40" height="20" as="geometry" />
        </mxCell>
        <mxCell id="gkVkLWcn6_179aJGpPZe-24" value="" style="endArrow=none;html=1;exitX=0.5;exitY=0;exitDx=0;exitDy=0;entryX=0.5;entryY=1;entryDx=0;entryDy=0;" edge="1" parent="1" source="gkVkLWcn6_179aJGpPZe-2" target="gkVkLWcn6_179aJGpPZe-23">
          <mxGeometry width="50" height="50" relative="1" as="geometry">
            <mxPoint x="370" y="670" as="sourcePoint" />
            <mxPoint x="420" y="620" as="targetPoint" />
          </mxGeometry>
        </mxCell>
        <mxCell id="gkVkLWcn6_179aJGpPZe-25" value="" style="endArrow=classic;html=1;strokeColor=#FF0000;" edge="1" parent="1">
          <mxGeometry width="50" height="50" relative="1" as="geometry">
            <mxPoint x="399" y="825" as="sourcePoint" />
            <mxPoint x="449" y="825" as="targetPoint" />
          </mxGeometry>
        </mxCell>
        <mxCell id="gkVkLWcn6_179aJGpPZe-26" value="Pull request" style="text;html=1;strokeColor=none;fillColor=none;align=center;verticalAlign=middle;whiteSpace=wrap;rounded=0;" vertex="1" parent="1">
          <mxGeometry x="399" y="835" width="50" height="20" as="geometry" />
        </mxCell>
        <mxCell id="gkVkLWcn6_179aJGpPZe-29" value="Desarrolladores" style="shape=umlActor;verticalLabelPosition=bottom;verticalAlign=top;html=1;outlineConnect=0;" vertex="1" parent="1">
          <mxGeometry x="425" y="100" width="30" height="60" as="geometry" />
        </mxCell>
        <mxCell id="gkVkLWcn6_179aJGpPZe-30" value="" style="shape=umlActor;verticalLabelPosition=bottom;verticalAlign=top;html=1;outlineConnect=0;" vertex="1" parent="1">
          <mxGeometry x="370" y="100" width="30" height="60" as="geometry" />
        </mxCell>
        <mxCell id="gkVkLWcn6_179aJGpPZe-31" value="" style="shape=umlActor;verticalLabelPosition=bottom;verticalAlign=top;html=1;outlineConnect=0;" vertex="1" parent="1">
          <mxGeometry x="480" y="100" width="30" height="60" as="geometry" />
        </mxCell>
        <mxCell id="gkVkLWcn6_179aJGpPZe-32" value="Probador" style="shape=umlActor;verticalLabelPosition=bottom;verticalAlign=top;html=1;outlineConnect=0;" vertex="1" parent="1">
          <mxGeometry x="185" y="100" width="30" height="60" as="geometry" />
        </mxCell>
        <mxCell id="gkVkLWcn6_179aJGpPZe-34" value="" style="endArrow=none;dashed=1;html=1;dashPattern=1 3;strokeWidth=2;strokeColor=#000066;" edge="1" parent="1">
          <mxGeometry width="50" height="50" relative="1" as="geometry">
            <mxPoint x="260" y="970" as="sourcePoint" />
            <mxPoint x="260" y="80" as="targetPoint" />
          </mxGeometry>
        </mxCell>
        <mxCell id="gkVkLWcn6_179aJGpPZe-35" value="" style="endArrow=none;dashed=1;html=1;dashPattern=1 3;strokeWidth=2;strokeColor=#000099;" edge="1" parent="1">
          <mxGeometry width="50" height="50" relative="1" as="geometry">
            <mxPoint x="150" y="970" as="sourcePoint" />
            <mxPoint x="150" y="80" as="targetPoint" />
          </mxGeometry>
        </mxCell>
        <mxCell id="gkVkLWcn6_179aJGpPZe-36" value="" style="endArrow=none;dashed=1;html=1;strokeColor=#000066;" edge="1" parent="1">
          <mxGeometry width="50" height="50" relative="1" as="geometry">
            <mxPoint x="404" y="890" as="sourcePoint" />
            <mxPoint x="444" y="890" as="targetPoint" />
          </mxGeometry>
        </mxCell>
        <mxCell id="gkVkLWcn6_179aJGpPZe-37" value="Ambientes" style="text;html=1;strokeColor=none;fillColor=none;align=center;verticalAlign=middle;whiteSpace=wrap;rounded=0;shadow=0;glass=0;dashed=1;sketch=0;" vertex="1" parent="1">
          <mxGeometry x="404" y="900" width="40" height="20" as="geometry" />
        </mxCell>
      </root>
    </mxGraphModel>
  </diagram>
</mxfile>
